<svg width="1235" height="480" version="1.1" viewBox="0 0 326.76 127" xmlns="http://www.w3.org/2000/svg"><g transform="translate(0 -170)" fill="#fff" stroke-width=".264583"><path d="m21.1667 212.333a21.1667 21.1667 0 0 1-19.5555-13.0665 21.1667 21.1667 0 0 1 4.58836-23.0672 21.1667 21.1667 0 0 1 23.0672-4.58836 21.1667 21.1667 0 0 1 13.0665 19.5554h-21.1667z"/><path d="m284.427 191.167a21.1667 21.1667 0 0 1 21.1667-21.1667 21.1667 21.1667 0 0 1 21.1667 21.1667 21.1667 21.1667 0 0 1-21.1667 21.1667v-21.1667z"/><path d="m305.594 254.667a21.1667 21.1667 0 0 1 19.5554 13.0665 21.1667 21.1667 0 0 1-4.58836 23.0672 21.1667 21.1667 0 0 1-23.0672 4.58835 21.1667 21.1667 0 0 1-13.0665-19.5554h21.1667z"/><path d="m42.3333 275.833a21.1667 21.1667 0 0 1-13.0665 19.5554 21.1667 21.1667 0 0 1-23.0672-4.58835 21.1667 21.1667 0 0 1-4.58836-23.0672 21.1667 21.1667 0 0 1 19.5554-13.0665v21.1667z"/></g><g fill="#fff" stroke-width=".264583" aria-label="Gestalt"><path d="m65.4128 91.8104q-5.715 0-10.7244-2.18722-4.93889-2.18722-8.74889-6.06778-3.73944-3.95111-5.85611-9.03111-2.11667-5.15056-2.11667-11.0067 0-5.78556 2.04611-10.8656 2.11667-5.15056 5.85611-9.03111 3.81-3.88056 8.74889-6.06778 5.00944-2.25778 10.795-2.25778 5.08 0 9.24278 1.48167 4.16278 1.48167 8.04333 4.72722 0.635 0.493889 0.705556 1.19944 0.141111 0.635-0.141111 1.27-0.282223 0.564444-0.846667 0.846666-0.141111 0.564445-0.705556 0.846667-0.564444 0.282222-1.34056 0.211667-0.705556-0.07056-1.41111-0.635-2.75167-2.39889-5.99722-3.52778-3.24556-1.19944-7.54944-1.19944-4.58611 0-8.60778 1.83444-3.95111 1.83444-6.985 5.00944-3.03389 3.175-4.79778 7.33778-1.69333 4.16278-1.69333 8.81944 0 4.79778 1.69333 8.96056 1.76389 4.16278 4.79778 7.33778t6.985 5.00944q4.02167 1.76389 8.60778 1.76389 3.88056 0 7.33778-1.27 3.45722-1.27 6.56167-3.66889 0.846667-0.705555 1.76389-0.564444 0.987778 0.141111 1.69333 0.846667 0.705555 0.705555 0.705555 1.83444 0 0.564445-0.141111 1.05833-0.141111 0.423334-0.635 0.917223-3.59833 3.31611-8.04333 4.72722-4.445 1.34056-9.24278 1.34056zm18.0622-8.04333-5.36222-1.12889v-14.1817h-11.0067q-1.19944 0-1.97556-0.705555-0.776111-0.705556-0.776111-1.76389 0-1.05833 0.776111-1.69333 0.776111-0.705555 1.97556-0.705555h13.6172q1.19944 0 1.97556 0.776111 0.776111 0.705555 0.776111 1.905z"/><path d="m109.116 91.4576q-5.715 0-10.16-2.46944-4.37444-2.54-6.91444-6.985-2.46944-4.445-2.46944-10.16 0-5.78556 2.32833-10.16 2.39889-4.445 6.56167-6.985 4.16278-2.54 9.59556-2.54 5.36222 0 9.31333 2.46944 4.02167 2.39889 6.20889 6.70278t2.18722 9.80722q0 1.12889-0.70555 1.83444-0.70556 0.635-1.83445 0.635h-29.9861v-4.51556h30.5506l-3.03389 2.18722q0.0705-4.09222-1.48167-7.33778-1.55222-3.24556-4.445-5.08-2.82222-1.83444-6.77333-1.83444-4.02167 0-7.05556 1.905-3.03389 1.905-4.72722 5.29167-1.62278 3.31611-1.62278 7.62t1.83444 7.62q1.905 3.31611 5.15055 5.22111 3.24556 1.905 7.47889 1.905 2.54 0 5.08-0.846666 2.61056-0.917223 4.16278-2.25778 0.77611-0.635 1.76389-0.635 0.98778-0.07056 1.69333 0.493889 0.91722 0.846666 0.91722 1.83444 0.0706 0.987778-0.77611 1.69333-2.32833 1.97556-5.92666 3.31611-3.59834 1.27-6.91445 1.27z"/><path d="m148.365 91.4576q-4.16278 0-8.255-1.41111t-6.63222-4.23333q-0.77611-0.846666-0.635-1.905 0.14111-1.05833 1.05833-1.83444 0.98778-0.705556 2.04611-0.564445 1.05834 0.141111 1.76389 0.917222 1.69333 1.97556 4.445 3.03389 2.82222 1.05833 6.20889 1.05833 5.22111 0 7.54944-1.76389 2.32834-1.83444 2.39889-4.37444 0-2.54-2.39889-4.16278-2.39888-1.69333-7.90222-2.61056-7.12611-1.12889-10.4422-3.95111-3.31611-2.82222-3.31611-6.70278 0-3.59833 1.905-5.99722t5.08-3.59833q3.175-1.19944 6.985-1.19944 4.72722 0 8.11389 1.62278 3.45722 1.62278 5.57389 4.37444 0.70555 0.917222 0.56444 1.905t-1.12889 1.62278q-0.84666 0.493889-1.97555 0.352777-1.05834-0.211666-1.83445-1.05833-1.76389-2.04611-4.09222-2.96333-2.32833-0.987778-5.36222-0.987778-3.88056 0-6.20889 1.62278-2.32833 1.55222-2.32833 3.95111 0 1.62278 0.84666 2.82222 0.91722 1.19944 3.03389 2.11667 2.18722 0.917222 6.06778 1.55222 5.29167 0.846667 8.32555 2.54 3.10445 1.62278 4.37445 3.88056 1.34055 2.18722 1.34055 4.79778 0 3.31611-1.97555 5.85611-1.905 2.46944-5.36222 3.88056-3.38667 1.41111-7.83167 1.41111z"/><path d="m188.022 91.1049q-3.73944 0-6.70278-1.76389-2.89277-1.76389-4.58611-4.79778-1.69333-3.10444-1.69333-7.05556v-34.5017q0-1.19944 0.70556-1.97556 0.77611-0.776111 1.97555-0.776111 1.19945 0 1.97556 0.776111 0.77611 0.776112 0.77611 1.97556v34.5017q0 3.59833 2.11666 5.92667 2.11667 2.25778 5.43278 2.25778h1.905q1.12889 0 1.83445 0.776111 0.70555 0.776111 0.70555 1.97556 0 1.19944-0.84666 1.97556-0.84667 0.705556-2.11667 0.705556zm-17.5683-32.4556q-1.05834 0-1.76389-0.635-0.70556-0.705556-0.70556-1.69333 0-1.05833 0.70556-1.69333 0.70555-0.705556 1.76389-0.705556h17.9917q1.05833 0 1.76388 0.705556 0.70556 0.635 0.70556 1.69333 0 0.987778-0.70556 1.69333-0.70555 0.635-1.76388 0.635z"/><path d="m218.314 91.4576q-5.43278 0-9.73667-2.54-4.30389-2.61056-6.84389-7.05556-2.46944-4.445-2.46944-10.0189 0-5.64444 2.54-10.0894 2.61056-4.445 7.05556-6.985 4.445-2.61056 10.0189-2.61056 5.57389 0 9.94834 2.61056 4.445 2.54 6.985 6.985 2.61055 4.445 2.68111 10.0894l-2.18722 1.69333q0 5.08-2.39889 9.17222-2.32833 4.02167-6.42056 6.42056-4.02166 2.32833-9.17222 2.32833zm0.56444-4.93889q4.09223 0 7.26723-1.905 3.24555-1.905 5.08-5.22111 1.905-3.38667 1.905-7.54944 0-4.23333-1.905-7.54944-1.83445-3.31611-5.08-5.22111-3.175-1.97556-7.26723-1.97556-4.02166 0-7.26722 1.97556-3.24555 1.905-5.15055 5.22111t-1.905 7.54944q0 4.16278 1.905 7.54944 1.905 3.31611 5.15055 5.22111 3.24556 1.905 7.26722 1.905zm16.8628 4.58611q-1.19944 0-1.97555-0.705556-0.77611-0.776111-0.77611-1.97556v-12.065l1.34055-5.57389 4.16278 1.05833v16.5806q0 1.19944-0.77611 1.97556-0.77611 0.705556-1.97556 0.705556z"/><path d="m257.454 91.1049q-2.82222 0-5.08-1.55222-2.18722-1.55222-3.45722-4.30389-1.19945-2.75167-1.19945-6.35v-40.2167q0-1.19944 0.70556-1.905 0.77611-0.776111 1.97555-0.776111 1.19945 0 1.905 0.776111 0.77611 0.705556 0.77611 1.905v40.2167q0 3.03389 1.19945 4.93889 1.27 1.905 3.175 1.905h1.76389q1.05833 0 1.69333 0.776111 0.635 0.705555 0.635 1.905 0 1.19944-0.91722 1.97556-0.84667 0.705556-2.25778 0.705556z"/><path d="m284.071 91.1049q-3.73944 0-6.70278-1.76389-2.89277-1.76389-4.58611-4.79778-1.69333-3.10444-1.69333-7.05556v-34.5017q0-1.19944 0.70556-1.97556 0.77611-0.776111 1.97555-0.776111 1.19945 0 1.97556 0.776111 0.77611 0.776112 0.77611 1.97556v34.5017q0 3.59833 2.11666 5.92667 2.11667 2.25778 5.43278 2.25778h1.905q1.12889 0 1.83445 0.776111 0.70555 0.776111 0.70555 1.97556 0 1.19944-0.84666 1.97556-0.84667 0.705556-2.11667 0.705556zm-17.5683-32.4556q-1.05833 0-1.76389-0.635-0.70556-0.705556-0.70556-1.69333 0-1.05833 0.70556-1.69333 0.70556-0.705556 1.76389-0.705556h17.9917q1.05833 0 1.76388 0.705556 0.70556 0.635 0.70556 1.69333 0 0.987778-0.70556 1.69333-0.70555 0.635-1.76388 0.635z"/></g></svg>
