<svg width="1235" height="480" version="1.1" viewBox="0 0 326.76 127" xmlns="http://www.w3.org/2000/svg"><g transform="translate(0 -170)" stroke-width=".264583"><path d="m21.1667 212.333a21.1667 21.1667 0 0 1-19.5555-13.0665 21.1667 21.1667 0 0 1 4.58836-23.0672 21.1667 21.1667 0 0 1 23.0672-4.58836 21.1667 21.1667 0 0 1 13.0665 19.5554h-21.1667z"/><path d="m284.427 191.167a21.1667 21.1667 0 0 1 21.1667-21.1667 21.1667 21.1667 0 0 1 21.1667 21.1667 21.1667 21.1667 0 0 1-21.1667 21.1667v-21.1667z"/><path d="m305.594 254.667a21.1667 21.1667 0 0 1 19.5554 13.0665 21.1667 21.1667 0 0 1-4.58836 23.0672 21.1667 21.1667 0 0 1-23.0672 4.58835 21.1667 21.1667 0 0 1-13.0665-19.5554h21.1667z"/><path d="m42.3333 275.833a21.1667 21.1667 0 0 1-13.0665 19.5554 21.1667 21.1667 0 0 1-23.0672-4.58835 21.1667 21.1667 0 0 1-4.58836-23.0672 21.1667 21.1667 0 0 1 19.5554-13.0665v21.1667z"/></g><text x="162.30104" y="91.104866" fill="#000000" font-family="sans-serif" font-size="56.7971px" letter-spacing="0px" stroke-width=".264583" text-align="center" text-anchor="middle" word-spacing="0px" style="line-height:1.25" xml:space="preserve"><tspan x="162.30104" y="91.104866" fill="#000000" font-family="Comfortaa" font-size="70.5556px" stroke-width=".264583">Gestalt</tspan></text></svg>
